HIERARCHY
ROOT Pelvis
{
	OFFSET 0.000000 0.000000 0.000000
	CHANNELS 6 Xposition Yposition Zposition Zrotation Yrotation Xrotation 
	JOINT Left_hip
	{
		OFFSET 0.076090 -0.089427 -0.010735
		CHANNELS 3 Zrotation Yrotation Xrotation
		JOINT Left_knee
		{
			OFFSET 0.030200 -0.359518 -0.003501
			CHANNELS 3 Zrotation Yrotation Xrotation
			JOINT Left_ankle
			{
				OFFSET -0.011005 -0.371022 -0.045888
				CHANNELS 3 Zrotation Yrotation Xrotation
				JOINT Left_foot
				{
					OFFSET 0.023930 -0.052103 0.111084
					CHANNELS 3 Zrotation Yrotation Xrotation
					End Site
					{
						OFFSET 0.000000 0.000000 0.000000
					}
				}
			}
		}
	}
	JOINT Right_hip
	{
		OFFSET -0.073836 -0.088112 -0.007709
		CHANNELS 3 Zrotation Yrotation Xrotation
		JOINT Right_knee
		{
			OFFSET -0.035715 -0.367809 -0.006536
			CHANNELS 3 Zrotation Yrotation Xrotation
			JOINT Right_ankle
			{
				OFFSET 0.013718 -0.371958 -0.043815
				CHANNELS 3 Zrotation Yrotation Xrotation
				JOINT Right_foot
				{
					OFFSET -0.021936 -0.046387 0.114542
					CHANNELS 3 Zrotation Yrotation Xrotation
					End Site
					{
						OFFSET 0.000000 0.000000 0.000000
					}
				}
			}
		}
	}
	JOINT Spine1
	{
		OFFSET -0.001865 0.102064 -0.019455
		CHANNELS 3 Zrotation Yrotation Xrotation
		JOINT Spine2
		{
			OFFSET 0.003082 0.129260 -0.001938
			CHANNELS 3 Zrotation Yrotation Xrotation
			JOINT Spine3
			{
				OFFSET 0.001104 0.048093 0.026561
				CHANNELS 3 Zrotation Yrotation Xrotation
				JOINT Neck
				{
					OFFSET -0.002010 0.204222 -0.047183
					CHANNELS 3 Zrotation Yrotation Xrotation
					JOINT Head
					{
						OFFSET 0.005050 0.063649 0.048489
						CHANNELS 3 Zrotation Yrotation Xrotation
						End Site
						{
							OFFSET 0.000000 0.000000 0.000000
						}
					}
				}
				JOINT Left_collar
				{
					OFFSET 0.072979 0.114065 -0.031633
					CHANNELS 3 Zrotation Yrotation Xrotation
					JOINT Left_shoulder
					{
						OFFSET 0.083419 0.032092 -0.006530
						CHANNELS 3 Zrotation Yrotation Xrotation
						JOINT Left_elbow
						{
							OFFSET 0.239393 -0.012014 -0.025060
							CHANNELS 3 Zrotation Yrotation Xrotation
							JOINT Left_wrist
							{
								OFFSET 0.227297 0.008116 0.000384
								CHANNELS 3 Zrotation Yrotation Xrotation
								JOINT Left_palm
								{
									OFFSET 0.074607 -0.009248 -0.012277
									CHANNELS 3 Zrotation Yrotation Xrotation
									End Site
									{
										OFFSET 0.000000 0.000000 0.000000
									}
								}
							}
						}
					}
				}
				JOINT Right_collar
				{
					OFFSET -0.074980 0.111880 -0.037894
					CHANNELS 3 Zrotation Yrotation Xrotation
					JOINT Right_shoulder
					{
						OFFSET -0.087565 0.034353 -0.009323
						CHANNELS 3 Zrotation Yrotation Xrotation
						JOINT Right_elbow
						{
							OFFSET -0.236838 -0.013719 -0.019794
							CHANNELS 3 Zrotation Yrotation Xrotation
							JOINT Right_wrist
							{
								OFFSET -0.235053 0.006433 -0.003853
								CHANNELS 3 Zrotation Yrotation Xrotation
								JOINT Right_palm
								{
									OFFSET -0.075499 -0.006894 -0.009792
									CHANNELS 3 Zrotation Yrotation Xrotation
									End Site
									{
										OFFSET 0.000000 0.000000 0.000000
									}
								}
							}
						}
					}
				}
			}
		}
	}
}
MOTION
Frames: 12
Frame Time: 0.100000
0.000000 0.000000 0.000000 175.199745 21.948981 -14.409184 2.433878 1.055794 6.422592 -3.412009 -6.280773 -7.604376 -0.774996 5.074681 -2.149358 1.551319 6.596354 -4.088677 -0.295788 -0.574102 5.091958 3.031173 3.626510 -3.742877 6.241554 -7.164970 -6.267504 -7.100868 6.722060 5.638378 1.890549 1.486588 1.359121 2.919582 -3.345442 2.719322 1.865520 -1.206402 -1.783953 1.784786 2.047326 -6.572929 -1.326443 -4.267672 11.621566 -30.107659 -17.134329 4.583954 -50.630059 -24.056784 15.465750 5.918255 -20.300034 6.969141 4.604896 -9.432966 14.366613 -12.187334 -3.977010 -13.081073 29.469903 15.281878 6.452693 41.282911 10.731433 13.938230 -7.356390 24.558189 -1.492241 -1.960558 6.137961 -4.691386 11.326054 5.843416 -6.059248 
0.000532 0.000001 -0.002294 175.164697 22.269947 -14.614258 2.398699 0.504822 6.387428 -3.529671 -5.864015 -7.523940 -0.394344 4.756600 -1.915311 0.842912 7.247050 -4.308479 -0.333276 -0.628346 5.058016 3.066164 3.211959 -3.573924 5.832168 -7.116403 -6.165387 -6.278749 7.144537 6.008926 1.873019 1.524649 1.304138 2.658746 -3.153653 3.058523 1.732418 -1.042060 -1.927710 1.665738 1.738631 -6.632293 -1.155078 -4.471595 12.292945 -29.652977 -18.854254 4.419314 -50.804788 -27.734020 16.375284 8.441467 -27.407785 3.527956 5.755326 -10.066006 9.666254 -11.217867 -3.347093 -9.870162 29.081757 16.796089 6.713844 41.024714 12.280857 14.525022 -7.648173 27.203856 -1.871431 -2.219531 6.489528 -5.850899 10.415099 5.563233 -4.898592 
0.001318 -0.000053 -0.002428 175.214754 21.992988 -14.617174 2.474839 0.222588 6.410005 -3.660151 -5.428118 -7.463943 -0.493575 5.117390 -1.970888 1.120846 6.792171 -4.377837 -0.272528 -0.496954 4.904906 3.065831 3.108853 -3.342418 5.750729 -6.722535 -6.083661 -6.086810 6.591364 6.059547 1.871481 1.528670 1.370366 2.610468 -2.732491 3.405149 1.704581 -0.832701 -1.854082 1.439545 0.765928 -6.841961 -1.003168 -5.104426 12.178757 -29.961972 -17.533953 4.630752 -51.900877 -26.487450 17.587364 9.575987 -32.772534 3.216162 5.683182 -10.846353 6.831099 -10.901626 -3.096038 -8.780051 29.607504 16.357956 7.291859 41.276034 11.653831 15.040309 -6.981323 27.502879 -0.887103 -1.158434 6.569910 -5.153062 9.713489 5.399336 -4.664037 
0.001708 0.000213 -0.002691 175.325221 21.319771 -14.565015 2.447341 0.455420 6.280770 -3.626756 -5.512495 -7.045869 -0.543330 6.032741 -2.353870 1.525841 5.769920 -4.055258 -0.136861 -0.238223 4.607220 2.941432 3.661725 -2.909380 5.777614 -6.808114 -6.191943 -6.299060 6.167718 5.999624 2.007962 1.521083 2.095958 2.771662 -2.543560 3.551084 1.602678 -0.815644 -1.610048 1.757558 -1.651022 -6.709841 -0.640208 -7.478396 11.803645 -30.752230 -15.256157 5.311265 -51.702008 -22.403070 17.502631 6.004120 -29.466421 7.177002 4.770387 -10.538692 7.773439 -11.351789 -3.389926 -10.426177 30.414662 15.318580 7.790046 41.608425 9.805885 15.018807 -5.115886 23.350752 0.731198 -0.995623 5.791783 -3.237181 10.046805 5.653088 -5.645302 
0.001353 0.000641 -0.005940 175.764569 19.890587 -14.183085 2.209115 1.468540 5.911776 -3.665299 -5.608110 -6.737230 -1.000988 7.158583 -2.599599 2.487741 4.133565 -3.542910 -0.292019 0.223189 3.693954 2.751923 4.630980 -2.164937 6.238446 -6.599719 -6.227631 -7.536440 5.481386 5.601020 2.947161 1.413449 3.526059 3.162531 -2.849106 3.828292 1.575006 -0.793666 -1.137997 1.006248 -4.935779 -5.382165 -0.585023 -10.372188 11.154023 -30.756024 -14.561690 6.136210 -52.477571 -18.018097 16.627920 1.638184 -13.690059 10.312162 1.404618 -8.378056 10.683797 -12.131439 -3.705322 -13.870325 29.872531 15.303735 7.923344 41.879988 8.619279 13.430097 -3.856463 14.284116 0.440998 1.041679 3.833695 -2.080017 10.549836 5.908677 -7.200948 
0.000778 0.000925 -0.014287 176.685116 16.748075 -13.361716 1.607314 3.082759 4.996029 -3.737485 -4.758191 -6.151619 -2.033489 8.114745 -2.558793 4.544344 3.951622 -4.024391 -0.596153 1.223170 1.466589 2.319304 6.141254 -0.405858 8.001910 -6.318530 -5.931369 -11.122411 5.380858 3.952702 4.809830 0.593814 6.154381 3.494833 -2.860692 4.936135 1.750265 -0.734829 -0.060297 0.858331 -7.691771 -5.070877 -1.002430 -12.515156 10.153168 -30.091429 -13.240944 6.610950 -54.416647 -12.573654 15.282762 0.509191 -1.715011 14.740720 -3.606820 -6.103815 18.569980 -12.156738 -4.038135 -18.781611 27.662750 15.833018 7.323816 40.926289 8.787351 10.448595 -3.597371 7.368349 -0.227370 2.067080 2.833394 3.110946 11.160060 5.928213 -9.334298 
0.001034 0.003234 -0.036243 178.088594 11.790305 -11.626271 0.072147 3.875195 1.371318 -3.330222 -1.913689 -3.470525 -3.818933 10.640680 -3.150754 8.368031 3.271209 -4.580897 -0.734071 3.149111 -4.348466 1.459238 8.078860 4.467950 10.981062 -5.621196 -5.466718 -16.417697 5.320694 1.620001 7.295952 -0.968304 12.084469 3.676751 -2.028738 6.644772 2.572443 0.018305 1.270661 -0.684727 -8.665514 -9.046422 -1.152032 -11.260769 4.889576 -28.128612 -11.337870 6.921962 -56.710076 -4.606346 15.118225 0.895676 -9.240748 15.600500 -4.201450 -6.796438 15.346647 -11.626431 -4.071664 -19.956195 23.926689 17.867564 6.671560 36.838966 10.913351 6.779514 -3.401150 7.098001 -3.841961 1.584075 2.220910 8.280697 10.681436 5.682170 -11.133717 
-0.001568 0.011892 -0.064220 -179.409527 6.791829 -7.995369 -2.572951 4.011455 -4.487624 -3.295754 1.083372 -1.522487 -4.303084 13.088790 -3.928365 10.392619 2.575210 -4.636464 -2.056016 5.330902 -14.138561 0.669914 9.698742 11.964479 12.761419 -4.396253 -5.727340 -19.208956 4.504938 0.317108 9.528936 -2.498777 19.255927 3.110274 -0.230027 7.873645 3.212522 1.382069 1.561218 -3.879712 -8.092031 -13.637862 -2.086599 -6.571612 -2.574561 -27.644353 -10.898858 7.133096 -58.345035 1.455189 15.248608 2.805381 -20.635447 12.768867 0.599777 -8.706647 9.355123 -11.700368 -4.209573 -19.942054 21.321580 21.015229 7.278518 29.962020 12.756545 2.059410 -3.129415 9.095988 -10.727599 -1.471118 3.501636 9.053268 10.167116 5.197198 -12.518461 
-0.007761 0.022348 -0.089913 -176.545313 6.710875 -5.536742 -5.913761 3.291028 -7.669121 -4.118383 1.665133 -2.332463 -3.701183 13.309137 -3.137546 9.546676 2.568943 -4.510659 -5.553447 6.262097 -21.438320 0.316066 9.781472 18.580514 12.819471 -3.929991 -6.479544 -19.543795 3.855465 -0.107856 12.152269 -5.000498 26.202492 2.273638 0.226419 9.619304 3.538951 2.112072 1.237018 -7.735032 -9.717585 -17.267065 -2.463804 -3.151424 -11.999422 -27.659486 -14.085652 7.017292 -60.163083 1.691596 14.122958 6.407023 -24.363872 3.513725 3.122186 -7.999224 -1.429843 -10.831810 -3.741207 -16.399763 18.609780 25.306723 7.993708 23.039088 13.315402 -3.081121 -3.233944 8.860240 -17.042507 -2.879233 3.047999 10.135118 8.953806 5.011006 -12.356295 
-0.012016 0.035909 -0.114793 -173.635161 7.182433 -3.169994 -9.208791 1.295091 -12.477228 -4.690337 2.357965 -0.291082 -2.890222 13.855730 -3.277011 8.482849 3.659246 -4.672855 -8.719437 5.867107 -28.550451 0.039377 10.482619 24.874879 14.284349 -5.218944 -7.691459 -22.788051 6.659753 -0.939503 14.047045 -7.659675 33.344853 0.923176 1.365772 10.367727 2.852998 2.935489 1.067326 -9.022810 -12.003344 -21.752067 -2.322558 -2.709344 -16.790862 -28.294058 -17.079425 7.308089 -57.214566 0.819879 12.990149 7.603662 -27.393069 -4.526355 2.354752 -8.868383 -13.623013 -7.625211 -2.833555 -10.074565 17.037549 29.487505 8.361141 15.176115 12.630755 -6.620851 -1.550001 8.533718 -21.565325 -5.543992 4.564348 14.058953 7.515368 4.744121 -11.093172 
-0.013405 0.043129 -0.136240 -171.195378 4.440481 -3.164037 -11.148952 0.395218 -10.996438 -4.906805 4.209135 -5.419119 -2.591400 14.944171 -2.061474 6.015798 6.030753 -3.283245 -10.354761 7.605751 -31.013743 0.917233 15.974915 26.962885 14.126082 -8.948192 -8.372866 -19.077293 8.034279 -2.960329 15.118709 -9.975789 42.001495 -1.047271 4.535885 14.946129 2.922782 4.545308 0.907299 -10.723078 -14.433069 -26.768568 -2.829158 -2.482590 -21.431303 -28.253182 -19.837065 4.266675 -55.751877 0.989405 13.830900 9.109130 -32.415625 -5.681979 8.805290 -9.487173 -8.417840 -4.061902 -3.122756 -8.077324 14.533477 34.796463 8.570569 3.839520 8.868115 -10.762324 0.082606 7.126295 -24.762013 -12.052299 4.472511 26.207578 4.558283 4.361595 -14.404587 
-0.011421 0.050655 -0.154341 -169.518459 3.382706 -0.234959 -11.976969 -1.009543 -15.813316 -5.546853 5.758380 -4.760223 -1.770104 15.661048 -1.704596 4.477524 5.470165 -2.349984 -12.433968 7.045452 -36.825928 1.650241 16.338718 28.888827 14.345780 -7.774550 -7.759429 -17.645452 6.791414 -1.055626 16.241590 -11.654578 49.027793 -2.097708 6.461769 15.665093 2.781122 6.162129 0.007602 -11.479897 -17.631434 -29.637364 -2.314385 -2.448781 -24.658490 -29.296405 -21.800353 3.262721 -53.723046 3.160392 15.693267 10.906543 -37.261230 -4.914649 8.182322 -11.169836 -6.593836 -4.701753 -2.751908 -9.092132 12.153754 38.179433 8.175719 -6.542047 4.970972 -16.301983 0.962433 3.103551 -30.247365 -9.840111 3.339412 29.423053 3.511323 3.695727 -15.581325 
